<?xml version="1.0" standalone="no"?>
<!DOCTYPE svg PUBLIC "-//W3C//DTD SVG 20010904//EN"
 "http://www.w3.org/TR/2001/REC-SVG-20010904/DTD/svg10.dtd">
<svg version="1.0" xmlns="http://www.w3.org/2000/svg"
 width="200.000000pt" height="200.000000pt" viewBox="0 0 200.000000 200.000000"
 preserveAspectRatio="xMidYMid meet">
<metadata>
Created by potrace 1.14, written by Peter Selinger 2001-2017
</metadata>
<g transform="translate(0.000000,200.000000) scale(0.100000,-0.100000)"
fill="#000000" stroke="none">
<path d="M1260 1950 c0 -6 -43 -10 -110 -10 -67 0 -110 -4 -110 -10 0 -5 -18
-10 -40 -10 -22 0 -40 -4 -40 -10 0 -6 -36 -10 -88 -10 -76 0 -89 -3 -102 -20
-8 -11 -21 -20 -30 -20 -9 0 -22 -9 -30 -20 -8 -11 -22 -20 -32 -20 -10 0 -18
-4 -18 -10 0 -5 -9 -10 -20 -10 -11 0 -20 -4 -20 -10 0 -5 -13 -10 -28 -10
-16 0 -34 -8 -42 -20 -8 -11 -20 -20 -28 -20 -15 0 -82 -65 -82 -80 0 -7 -18
-29 -40 -50 -32 -31 -40 -46 -40 -74 0 -20 -4 -36 -10 -36 -6 0 -10 -57 -10
-150 0 -93 4 -150 10 -150 6 0 10 -18 10 -40 0 -22 5 -40 10 -40 6 0 10 -30
10 -70 0 -40 4 -70 10 -70 6 0 10 -47 10 -120 0 -73 4 -120 10 -120 6 0 10
-26 10 -58 0 -46 4 -60 20 -72 14 -10 20 -26 20 -52 0 -21 5 -38 10 -38 6 0
10 -13 10 -30 0 -16 5 -30 10 -30 6 0 10 -13 10 -30 0 -16 5 -30 10 -30 6 0
10 -7 10 -15 0 -20 305 -325 325 -325 8 0 15 -4 15 -10 0 -5 9 -10 20 -10 11
0 20 -4 20 -10 0 -6 30 -10 70 -10 40 0 70 4 70 10 0 6 9 10 20 10 11 0 20 5
20 10 0 6 7 10 15 10 20 0 325 305 325 325 0 8 5 15 10 15 6 0 10 14 10 30 0
17 5 30 10 30 6 0 10 14 10 30 0 17 5 30 10 30 6 0 10 17 10 38 0 26 6 42 20
52 16 12 20 26 20 72 0 32 4 58 10 58 6 0 10 32 10 76 0 75 0 76 40 114 22 21
40 46 40 54 0 9 5 16 10 16 6 0 10 9 10 20 0 11 5 20 10 20 6 0 10 14 10 30 0
17 5 30 10 30 6 0 10 14 10 30 0 17 5 30 10 30 6 0 10 14 10 30 0 17 5 30 10
30 6 0 10 18 10 40 0 22 5 40 10 40 6 0 10 8 10 18 0 10 9 24 20 32 18 13 20
26 20 112 0 59 -4 98 -10 98 -5 0 -10 7 -10 16 0 8 -18 33 -40 54 -22 21 -40
44 -40 50 0 15 -25 40 -40 40 -19 0 -80 68 -80 90 0 24 -42 70 -65 70 -8 0
-15 5 -15 10 0 6 -17 10 -38 10 -26 0 -42 6 -52 20 -8 12 -26 20 -42 20 -15 0
-28 5 -28 10 0 6 -13 10 -30 10 -16 0 -30 -4 -30 -10z m-820 -1080 c0 -5 -4
-10 -10 -10 -5 0 -10 5 -10 10 0 6 5 10 10 10 6 0 10 -4 10 -10z"/>
</g>
</svg>
